HIERARCHY
ROOT Hips
{
	OFFSET 0.000000 83.208069 2.550922
	CHANNELS 6 Xposition Yposition Zposition Xrotation Yrotation Zrotation
	JOINT Pelvis
	{
		OFFSET 0.000000 0.000000 0.000000
		CHANNELS 3 Xrotation Yrotation Zrotation
		JOINT LeftUpLeg
		{
			OFFSET 8.479694 -4.795517 -0.379053
			CHANNELS 3 Xrotation Yrotation Zrotation
			JOINT LeftLeg
			{
				OFFSET 0.485052 -32.551468 0.112863
				CHANNELS 3 Xrotation Yrotation Zrotation
				JOINT LeftFoot
				{
					OFFSET 0.438033 -32.635670 -3.012641
					CHANNELS 3 Xrotation Yrotation Zrotation
					JOINT LeftToeBase
					{
						OFFSET 0.970169 -13.225353 11.864223
						CHANNELS 3 Xrotation Yrotation Zrotation
						End Site
						{
							OFFSET 0.000000 12.319231 0.000000
						}
					}
					JOINT LFootTongue
					{
						OFFSET 1.142399 -1.059789 6.665162
						CHANNELS 3 Xrotation Yrotation Zrotation
						End Site
						{
							OFFSET 0.000000 12.319230 0.000000
						}
					}
				}
				JOINT LeftPantLeg
				{
					OFFSET 1.152549 -16.519323 -2.284731
					CHANNELS 3 Xrotation Yrotation Zrotation
					End Site
					{
						OFFSET 0.000000 24.746851 0.000000
					}
				}
			}
		}
		JOINT RightUpLeg
		{
			OFFSET -8.479694 -4.795517 -0.379053
			CHANNELS 3 Xrotation Yrotation Zrotation
			JOINT RightLeg
			{
				OFFSET -0.484100 -32.551483 0.112903
				CHANNELS 3 Xrotation Yrotation Zrotation
				JOINT RightFoot
				{
					OFFSET -0.438985 -32.635651 -3.012681
					CHANNELS 3 Xrotation Yrotation Zrotation
					JOINT RightToeBase
					{
						OFFSET -0.970169 -13.225354 11.864223
						CHANNELS 3 Xrotation Yrotation Zrotation
						End Site
						{
							OFFSET 0.000000 12.319217 0.000000
						}
					}
					JOINT RFootTongue
					{
						OFFSET -1.142220 -1.059793 6.665161
						CHANNELS 3 Xrotation Yrotation Zrotation
						End Site
						{
							OFFSET 0.000000 12.319217 0.000000
						}
					}
				}
				JOINT RightPantLeg
				{
					OFFSET -1.153501 -16.519308 -2.284772
					CHANNELS 3 Xrotation Yrotation Zrotation
					End Site
					{
						OFFSET 0.000000 24.746878 0.000000
					}
				}
			}
		}
	}
	JOINT Spine
	{
		OFFSET 0.000000 7.722015 1.166203
		CHANNELS 3 Xrotation Yrotation Zrotation
		JOINT Spine1
		{
			OFFSET 0.000000 12.024086 0.248766
			CHANNELS 3 Xrotation Yrotation Zrotation
			JOINT Spine2
			{
				OFFSET -0.000000 11.503036 -0.491240
				CHANNELS 3 Xrotation Yrotation Zrotation
				JOINT Neck
				{
					OFFSET 0.000000 18.430687 -3.123054
					CHANNELS 3 Xrotation Yrotation Zrotation
					JOINT Head
					{
						OFFSET -0.000000 9.051071 1.034021
						CHANNELS 3 Xrotation Yrotation Zrotation
						JOINT HairB
						{
							OFFSET 0.208397 24.786072 24.822304
							CHANNELS 3 Xrotation Yrotation Zrotation
							End Site
							{
								OFFSET 0.000000 32.263794 0.000000
							}
						}
						JOINT HairA
						{
							OFFSET -7.081073 24.428299 23.196634
							CHANNELS 3 Xrotation Yrotation Zrotation
							End Site
							{
								OFFSET 0.000000 32.263779 0.000000
							}
						}
						JOINT Hat
						{
							OFFSET 16.728800 15.048309 -15.439650
							CHANNELS 3 Xrotation Yrotation Zrotation
							End Site
							{
								OFFSET 0.000000 32.263794 0.000000
							}
						}
					}
				}
				JOINT LeftShoulder
				{
					OFFSET 6.197824 13.665230 -4.064723
					CHANNELS 3 Xrotation Yrotation Zrotation
					JOINT LeftArm
					{
						OFFSET 7.778132 -0.187073 -1.709282
						CHANNELS 3 Xrotation Yrotation Zrotation
						JOINT LeftForeArm
						{
							OFFSET 21.954697 0.000000 -2.041093
							CHANNELS 3 Xrotation Yrotation Zrotation
							JOINT LeftHand
							{
								OFFSET 22.992908 0.000000 -0.870901
								CHANNELS 3 Xrotation Yrotation Zrotation
								JOINT LeftHandThumb1
								{
									OFFSET 3.593975 -1.460358 3.365570
									CHANNELS 3 Xrotation Yrotation Zrotation
									JOINT LeftHandThumb2
									{
										OFFSET 3.016712 -1.561966 2.119022
										CHANNELS 3 Xrotation Yrotation Zrotation
										JOINT LeftHandThumb3
										{
											OFFSET 3.029564 -2.099800 1.415844
											CHANNELS 3 Xrotation Yrotation Zrotation
											End Site
											{
												OFFSET 0.000000 3.948677 0.000000
											}
										}
									}
								}
								JOINT LeftHandIndex1
								{
									OFFSET 11.372505 0.065018 3.699154
									CHANNELS 3 Xrotation Yrotation Zrotation
									JOINT LeftHandIndex2
									{
										OFFSET 3.229195 -0.574921 -0.143498
										CHANNELS 3 Xrotation Yrotation Zrotation
										JOINT LeftHandIndex3
										{
											OFFSET 3.111160 -1.135635 -0.280794
											CHANNELS 3 Xrotation Yrotation Zrotation
											End Site
											{
												OFFSET 0.000000 3.323822 0.000000
											}
										}
									}
								}
								JOINT LeftHandMiddle1
								{
									OFFSET 11.327377 0.426697 -0.098180
									CHANNELS 3 Xrotation Yrotation Zrotation
									JOINT LeftHandMiddle2
									{
										OFFSET 3.290932 -0.875465 -0.186927
										CHANNELS 3 Xrotation Yrotation Zrotation
										JOINT LeftHandMiddle3
										{
											OFFSET 3.094551 -1.150223 -0.267588
											CHANNELS 3 Xrotation Yrotation Zrotation
											End Site
											{
												OFFSET 0.000000 3.312233 0.000000
											}
										}
									}
								}
								JOINT LeftHandRing1
								{
									OFFSET 11.497078 -0.008904 -3.070051
									CHANNELS 3 Xrotation Yrotation Zrotation
									JOINT LeftHandRing2
									{
										OFFSET 2.881340 -0.992859 -0.186928
										CHANNELS 3 Xrotation Yrotation Zrotation
										JOINT LeftHandRing3
										{
											OFFSET 3.022743 -1.281013 -0.290960
											CHANNELS 3 Xrotation Yrotation Zrotation
											End Site
											{
												OFFSET 0.000000 3.295853 0.000000
											}
										}
									}
								}
								JOINT LeftHandPinky1
								{
									OFFSET 10.529488 -1.373093 -5.625615
									CHANNELS 3 Xrotation Yrotation Zrotation
									JOINT LeftHandPinky2
									{
										OFFSET 2.679024 -0.950073 -0.330554
										CHANNELS 3 Xrotation Yrotation Zrotation
										JOINT LeftHandPinky3
										{
											OFFSET 2.724571 -0.843613 -0.252685
											CHANNELS 3 Xrotation Yrotation Zrotation
											End Site
											{
												OFFSET 0.000000 2.863358 0.000000
											}
										}
									}
								}
							}
							JOINT LSleeve
							{
								OFFSET 6.633202 -0.344879 -1.263650
								CHANNELS 3 Xrotation Yrotation Zrotation
								End Site
								{
									OFFSET 0.000000 14.885345 0.000000
								}
							}
						}
					}
				}
				JOINT RightShoulder
				{
					OFFSET -6.197824 13.665230 -4.064723
					CHANNELS 3 Xrotation Yrotation Zrotation
					JOINT RightArm
					{
						OFFSET -7.778132 -0.187073 -1.709282
						CHANNELS 3 Xrotation Yrotation Zrotation
						JOINT RightForeArm
						{
							OFFSET -21.954697 0.000000 -2.041093
							CHANNELS 3 Xrotation Yrotation Zrotation
							JOINT RightHand
							{
								OFFSET -22.992908 0.000000 -0.870901
								CHANNELS 3 Xrotation Yrotation Zrotation
								JOINT RightHandThumb1
								{
									OFFSET -3.593975 -1.460358 3.365570
									CHANNELS 3 Xrotation Yrotation Zrotation
									JOINT RightHandThumb2
									{
										OFFSET -3.016712 -1.561966 2.119022
										CHANNELS 3 Xrotation Yrotation Zrotation
										JOINT RightHandThumb3
										{
											OFFSET -3.029564 -2.099800 1.415844
											CHANNELS 3 Xrotation Yrotation Zrotation
											End Site
											{
												OFFSET 0.000000 3.948677 0.000000
											}
										}
									}
								}
								JOINT RightHandIndex1
								{
									OFFSET -11.372513 0.065018 3.699154
									CHANNELS 3 Xrotation Yrotation Zrotation
									JOINT RightHandIndex2
									{
										OFFSET -3.229187 -0.574921 -0.143498
										CHANNELS 3 Xrotation Yrotation Zrotation
										JOINT RightHandIndex3
										{
											OFFSET -3.111160 -1.135635 -0.280794
											CHANNELS 3 Xrotation Yrotation Zrotation
											End Site
											{
												OFFSET 0.000000 3.323822 0.000000
											}
										}
									}
								}
								JOINT RightHandMiddle1
								{
									OFFSET -11.327377 0.426697 -0.098180
									CHANNELS 3 Xrotation Yrotation Zrotation
									JOINT RightHandMiddle2
									{
										OFFSET -3.290932 -0.875465 -0.186927
										CHANNELS 3 Xrotation Yrotation Zrotation
										JOINT RightHandMiddle3
										{
											OFFSET -3.094551 -1.150223 -0.267588
											CHANNELS 3 Xrotation Yrotation Zrotation
											End Site
											{
												OFFSET 0.000000 3.312233 0.000000
											}
										}
									}
								}
								JOINT RightHandRing1
								{
									OFFSET -11.497078 -0.008904 -3.070051
									CHANNELS 3 Xrotation Yrotation Zrotation
									JOINT RightHandRing2
									{
										OFFSET -2.881340 -0.992859 -0.186928
										CHANNELS 3 Xrotation Yrotation Zrotation
										JOINT RightHandRing3
										{
											OFFSET -3.022743 -1.281013 -0.290960
											CHANNELS 3 Xrotation Yrotation Zrotation
											End Site
											{
												OFFSET 0.000000 3.295853 0.000000
											}
										}
									}
								}
								JOINT RightHandPinky1
								{
									OFFSET -10.529488 -1.373093 -5.625615
									CHANNELS 3 Xrotation Yrotation Zrotation
									JOINT RightHandPinky2
									{
										OFFSET -2.679024 -0.950073 -0.330554
										CHANNELS 3 Xrotation Yrotation Zrotation
										JOINT RightHandPinky3
										{
											OFFSET -2.724571 -0.843613 -0.252685
											CHANNELS 3 Xrotation Yrotation Zrotation
											End Site
											{
												OFFSET 0.000000 2.863358 0.000000
											}
										}
									}
								}
							}
							JOINT RSleeve
							{
								OFFSET -6.633202 -0.344879 -1.263650
								CHANNELS 3 Xrotation Yrotation Zrotation
								End Site
								{
									OFFSET 0.000000 14.885345 0.000000
								}
							}
						}
					}
				}
				JOINT Backpack
				{
					OFFSET -0.000000 -2.471489 36.677479
					CHANNELS 3 Xrotation Yrotation Zrotation
					End Site
					{
						OFFSET 0.000000 20.427322 0.000000
					}
				}
				JOINT Hood
				{
					OFFSET -0.000000 18.754143 -10.430963
					CHANNELS 3 Xrotation Yrotation Zrotation
					JOINT Hood1
					{
						OFFSET -0.000000 -5.011017 -7.685929
						CHANNELS 3 Xrotation Yrotation Zrotation
						End Site
						{
							OFFSET 0.000000 9.175171 0.000000
						}
					}
				}
				JOINT LHoodieString
				{
					OFFSET 5.250455 16.397728 3.089918
					CHANNELS 3 Xrotation Yrotation Zrotation
					JOINT LHoodieString1
					{
						OFFSET 0.257711 -6.364296 3.694587
						CHANNELS 3 Xrotation Yrotation Zrotation
						JOINT LHoodieString2
						{
							OFFSET 0.000000 -9.643806 2.679132
							CHANNELS 3 Xrotation Yrotation Zrotation
							End Site
							{
								OFFSET 0.000000 10.009033 0.000000
							}
						}
					}
				}
				JOINT RHoodieString
				{
					OFFSET -5.250455 16.397728 3.089918
					CHANNELS 3 Xrotation Yrotation Zrotation
					JOINT RHoodieString1
					{
						OFFSET -0.257711 -6.364296 3.694587
						CHANNELS 3 Xrotation Yrotation Zrotation
						JOINT RHoodieString2
						{
							OFFSET 0.000000 -9.643806 2.679132
							CHANNELS 3 Xrotation Yrotation Zrotation
							End Site
							{
								OFFSET 0.000000 10.009033 0.000000
							}
						}
					}
				}
			}
			JOINT LBackpack_Strap
			{
				OFFSET 15.223173 -7.719788 -6.610897
				CHANNELS 3 Xrotation Yrotation Zrotation
				End Site
				{
					OFFSET 0.000000 16.040596 0.000000
				}
			}
			JOINT RBackpack_Strap
			{
				OFFSET -15.223000 -7.719788 -6.610897
				CHANNELS 3 Xrotation Yrotation Zrotation
				End Site
				{
					OFFSET 0.000000 16.040596 0.000000
				}
			}
		}
	}
	JOINT BoyFacialAnim_Joint
	{
		OFFSET 1.000000 -82.208069 -1.550922
		CHANNELS 3 Xrotation Yrotation Zrotation
		End Site
		{
			OFFSET 0.000000 30.012787 0.000000
		}
	}
}
MOTION
Frames: 5
Frame Time: 0.016667
-3.856921 76.529877 -2.510947 -16.025634 -38.429318 -7.366032 0.000000 -0.000001 -0.000000 -25.315476 2.960688 13.052824 38.382354 -11.183555 1.202466 12.626196 -0.054777 -12.588830 0.000001 -0.000001 -0.000000 0.000002 -0.000001 0.000000 0.000000 0.000002 0.000001 4.390615 -18.870732 -14.647588 38.292049 -7.275404 -0.458776 -26.675336 -3.878240 13.725916 0.000000 0.000002 -0.000000 0.000000 0.000002 -0.000000 0.000002 -0.000001 0.000000 5.994123 1.687916 -0.333947 12.035803 3.214023 -1.555559 12.035804 3.214019 -1.555561 0.808825 2.930023 5.847937 3.843917 16.036794 -7.029031 0.000001 -0.000001 -0.000000 0.000001 -0.000001 -0.000000 0.000001 -0.000001 -0.000000 -0.675787 6.367323 14.435354 -28.592193 -42.376375 1.713658 11.430452 -25.179846 -10.007649 6.882446 -3.701907 15.252137 5.269037 -1.684373 -9.080939 -5.182533 -1.550142 7.578666 -0.000000 0.000000 -0.000000 -9.116216 -15.808430 -32.174228 -11.058258 -8.795683 -43.321329 -0.000000 0.000001 0.000002 -6.314109 -10.832081 -31.692245 -10.274550 -8.171313 -41.281653 -0.000000 0.000000 -0.000003 -5.096086 -2.061052 -32.935288 -10.990481 -7.220916 -45.603151 -0.000000 0.000000 0.000001 -2.616471 5.506881 -29.056127 -12.752365 -6.245905 -60.809926 0.000000 0.000000 -0.000001 -0.000001 0.000000 0.000000 0.346727 -1.487430 -4.124267 -25.378386 33.530840 -3.613476 0.706595 27.550285 10.369609 -8.799833 19.778923 4.240613 17.207098 7.035308 28.410921 -0.938784 -7.747064 -8.316905 0.000000 0.000001 -0.000002 -6.756801 14.738954 18.679831 -6.948967 6.962679 30.246926 -0.000001 -0.000000 0.000001 -4.620254 8.173112 18.566090 -6.442651 6.450689 28.276493 -0.000001 0.000001 -0.000002 -0.980667 -0.350117 20.485132 -8.353922 7.500494 32.298387 -0.000000 0.000001 -0.000000 1.835115 -7.047201 17.314912 -11.605954 8.425871 47.158314 0.000002 -0.000002 0.000002 -0.000000 -0.000003 0.000000 0.000002 -0.000000 0.000000 0.000002 -0.000000 0.000000 0.000002 -0.000000 0.000000 0.000002 -0.000000 0.000000 0.000002 -0.000000 0.000001 0.000002 -0.000000 -0.000000 0.000002 -0.000000 0.000000 0.000002 -0.000000 -0.000000 0.000002 -0.000000 0.000001 0.000000 -0.000002 0.000000 0.000000 -0.000002 0.000000 0.000000 -0.000001 -0.000000 
-5.549515 80.904778 -2.140463 -16.440156 -38.880466 -7.591524 0.000000 0.000000 -0.000000 -17.210663 6.624895 13.225828 20.727145 -12.694296 1.995550 30.829145 -2.765457 -14.761041 -0.000001 -0.000001 0.000000 -0.000000 -0.000001 0.000000 -0.000000 -0.000000 0.000000 10.817337 -18.828299 -11.857691 25.078575 -4.792790 -0.336185 -10.428356 -1.824506 11.475329 0.000001 -0.000001 0.000000 0.000001 -0.000001 0.000000 0.000003 -0.000000 0.000000 5.390373 1.805437 -0.449453 10.847842 3.499696 -2.042200 10.847843 3.499693 -2.042202 3.765082 2.490153 6.424216 6.751136 15.504517 -8.701760 -0.000001 -0.000000 -0.000000 -0.000001 -0.000000 -0.000000 -0.000001 -0.000000 -0.000000 -1.740825 10.008584 19.408152 -25.533615 -39.894670 5.869234 12.354511 -24.764067 -10.097099 6.653871 -5.194422 15.572095 4.729971 -1.399081 -8.124619 -5.184924 -1.554896 7.579520 -0.000002 -0.000000 0.000001 -8.481982 -15.474543 -30.487345 -10.586565 -8.703578 -41.675448 0.000003 -0.000001 -0.000001 -5.954885 -10.603251 -30.038154 -9.829858 -8.071676 -39.647397 -0.000000 -0.000000 -0.000003 -4.886418 -1.916636 -31.310588 -10.601324 -7.213938 -43.971358 -0.000000 0.000000 0.000002 -2.608782 5.541378 -27.396541 -12.427128 -6.316774 -59.177462 0.000001 -0.000001 -0.000002 0.000001 0.000000 0.000000 0.297389 -2.580776 -7.092000 -24.261093 35.422218 -6.368961 3.742571 20.978023 9.301870 -9.701821 20.680317 8.790786 17.089506 6.324037 27.604630 -0.915074 -7.793290 -8.317917 0.000001 0.000000 0.000004 -6.402821 14.397323 18.118424 -6.804332 6.903822 29.676424 -0.000001 -0.000000 -0.000000 -4.520521 8.077461 17.994285 -6.309482 6.391622 27.720318 0.000001 -0.000001 0.000002 -1.047365 -0.324215 19.879575 -8.212861 7.460990 31.742228 -0.000002 0.000000 0.000001 1.624554 -6.878270 16.629825 -11.463299 8.411009 46.594352 -0.000003 0.000001 -0.000002 -0.000000 0.000002 -0.000000 0.000001 0.000002 -0.000001 0.000001 0.000002 -0.000001 0.000001 0.000002 -0.000001 0.000001 0.000002 -0.000001 0.000001 0.000002 -0.000001 -0.000000 0.000002 -0.000001 0.000001 0.000002 -0.000001 0.000001 0.000002 -0.000001 0.000001 0.000002 -0.000001 0.000000 0.000000 0.000000 0.000000 0.000000 0.000000 0.000000 0.000000 -0.000000 
-6.712035 84.955971 -2.002604 -15.791971 -39.793659 -6.915552 -0.000000 0.000003 -0.000000 -13.801136 8.236686 12.005482 13.414774 -17.929293 2.934898 38.481651 -3.806940 -14.250693 -0.000002 -0.000002 -0.000000 -0.000001 -0.000002 0.000001 -0.000000 -0.000002 0.000001 13.006150 -17.886022 -11.004141 13.190873 -1.109289 -1.249047 12.036035 0.887530 12.453501 0.000002 -0.000000 0.000001 0.000002 -0.000000 0.000001 -0.000001 -0.000001 -0.000001 5.037931 1.958306 -0.658561 10.148497 3.743866 -2.337036 10.148497 3.743875 -2.337034 6.185546 2.219083 6.632938 8.363089 15.206687 -10.348303 -0.000001 0.000001 -0.000000 -0.000001 0.000001 -0.000000 -0.000001 0.000001 -0.000000 -3.167070 13.780730 23.119733 -24.048111 -35.578039 7.880537 11.120433 -26.357792 -9.752964 6.214636 -6.007175 17.346549 4.069054 -1.088983 -6.985142 -5.180709 -1.548088 7.580860 0.000003 -0.000001 0.000000 -7.771132 -15.047778 -28.556102 -10.045222 -8.580451 -39.774346 0.000002 0.000001 0.000001 -5.550111 -10.343589 -28.124084 -9.313803 -7.939326 -37.737239 0.000001 0.000001 0.000001 -4.642420 -1.758764 -29.404456 -10.142785 -7.191195 -42.048154 0.000001 0.000001 0.000003 -2.588983 5.565543 -25.434479 -12.042342 -6.388598 -57.256656 0.000000 -0.000001 0.000000 0.000002 0.000001 0.000001 0.192149 -3.941857 -9.435534 -24.293704 35.876368 -7.531496 4.791003 15.989751 8.014033 -10.491833 20.840818 14.117144 16.693691 5.463689 26.272579 -0.974323 -7.654259 -8.310908 0.000001 0.000003 -0.000002 -5.988483 13.972514 17.301077 -6.593293 6.814742 28.839340 -0.000002 0.000000 -0.000001 -4.376817 7.939624 17.154259 -6.105089 6.298059 26.861440 -0.000002 -0.000000 0.000003 -1.080665 -0.322218 18.998564 -7.993540 7.396459 30.873661 -0.000001 -0.000001 0.000001 1.446100 -6.716986 15.656114 -11.243958 8.385469 45.726245 -0.000000 -0.000001 0.000002 -0.000000 0.000001 -0.000000 -0.000000 -0.000002 0.000000 -0.000000 -0.000002 0.000000 -0.000000 -0.000002 0.000000 -0.000000 -0.000002 0.000000 -0.000000 -0.000002 0.000000 -0.000000 -0.000002 0.000000 -0.000000 -0.000002 0.000000 -0.000000 -0.000002 0.000000 -0.000000 -0.000002 0.000000 0.000000 -0.000003 0.000000 0.000000 -0.000003 0.000000 -0.000000 0.000003 -0.000000 
-7.197711 89.653313 -2.060317 -14.544688 -40.130493 -5.325863 -0.000000 -0.000001 -0.000001 -11.021580 8.806708 10.069407 8.115361 -25.108435 2.547908 42.850691 -5.318795 -16.900214 -0.000004 0.000002 -0.000000 -0.000002 -0.000001 -0.000002 -0.000000 0.000001 0.000001 13.064356 -17.936540 -13.107166 5.087789 -1.303635 -2.341231 24.205057 3.113465 20.502338 0.000004 0.000000 0.000000 0.000004 0.000000 0.000000 0.000001 0.000001 -0.000000 4.996652 2.071730 -0.838914 10.072717 3.936690 -2.636163 10.072718 3.936687 -2.636162 8.079804 2.146868 6.397282 8.432120 15.201851 -11.751662 -0.000002 -0.000000 0.000000 -0.000002 -0.000000 0.000000 -0.000002 -0.000000 0.000000 -4.630811 17.333263 25.050953 -23.785840 -29.782794 8.740445 7.487463 -29.889499 -9.447852 4.963104 -5.930982 21.101989 3.288675 -0.768905 -5.677187 -5.168262 -1.526596 7.582535 -0.000002 0.000000 0.000001 -7.008552 -14.524245 -26.427938 -9.447671 -8.422571 -37.658702 0.000001 0.000001 0.000001 -5.112720 -10.058591 -25.989507 -8.737968 -7.770202 -35.585934 0.000000 -0.000002 -0.000001 -4.369274 -1.592390 -27.249098 -9.622991 -7.146832 -39.864041 0.000000 -0.000000 -0.000003 -2.552943 5.574222 -23.199441 -11.603483 -6.454859 -55.078499 0.000001 0.000000 -0.000002 -0.000001 0.000002 0.000002 0.029638 -5.466252 -10.974459 -24.989722 34.385966 -8.051167 3.408797 13.131676 6.678870 -11.517610 20.390268 18.034756 16.035633 4.490146 24.465396 -1.111462 -7.342312 -8.295996 0.000001 0.000001 0.000000 -5.532505 13.471911 16.266401 -6.325594 6.696467 27.770026 0.000002 -0.000001 0.000001 -4.197010 7.764488 16.080193 -5.836538 6.169602 25.724244 0.000003 0.000004 -0.000002 -1.082730 -0.340698 17.873603 -7.702479 7.305223 29.715097 0.000001 0.000000 -0.000000 1.303487 -6.563009 14.422856 -10.954250 8.346788 44.578801 0.000001 0.000001 -0.000002 -0.000000 -0.000000 0.000001 0.000000 0.000000 -0.000000 0.000000 0.000000 -0.000000 0.000000 0.000000 -0.000000 0.000000 0.000000 -0.000000 0.000000 0.000000 -0.000000 -0.000001 0.000000 -0.000000 0.000000 0.000000 -0.000000 0.000000 0.000000 -0.000000 0.000000 0.000000 -0.000000 0.000000 -0.000002 -0.000000 0.000000 -0.000002 -0.000000 -0.000000 -0.000001 -0.000001 
-6.888002 94.498558 -2.176836 -13.155333 -39.594617 -3.160679 -0.000000 -0.000003 -0.000000 -9.504091 8.481667 8.439043 3.990004 -27.942992 -0.005809 46.995837 -7.867737 -21.683066 0.000001 0.000000 0.000000 0.000001 -0.000001 0.000001 0.000000 -0.000001 -0.000002 5.942262 -17.317777 -17.234550 11.709999 -1.048026 -1.350347 24.610573 2.470825 18.864955 0.000005 -0.000000 -0.000001 0.000005 -0.000000 -0.000000 0.000001 0.000001 -0.000001 5.141522 2.152278 -1.027779 10.376422 4.037866 -3.105351 10.376420 4.037869 -3.105352 9.652205 2.282487 5.731348 7.016950 15.557564 -12.731645 0.000000 0.000000 0.000000 0.000000 0.000000 0.000000 0.000000 0.000000 0.000000 -5.745060 20.421239 24.929569 -24.104176 -22.911432 9.587265 1.690480 -34.889535 -10.011737 2.456631 -5.037800 26.649954 2.414525 -0.447290 -4.237252 -5.150300 -1.495926 7.583982 0.000002 -0.000001 -0.000002 -6.218323 -13.910630 -24.142820 -8.807667 -8.226821 -35.368584 0.000002 0.000001 0.000001 -4.654117 -9.742079 -23.677278 -8.118558 -7.561827 -33.243774 -0.000001 -0.000000 0.000002 -4.074720 -1.412910 -24.896668 -9.056716 -7.075745 -37.475431 -0.000001 0.000000 0.000001 -2.498912 5.568671 -20.751802 -11.121108 -6.508418 -52.697187 -0.000000 0.000001 0.000001 -0.000001 0.000000 0.000000 -0.169273 -7.015037 -11.581092 -25.897523 30.809805 -8.740554 -0.433485 12.514565 5.404978 -13.137783 19.600280 18.842890 15.122041 3.446702 22.250902 -1.313730 -6.886853 -8.273507 0.000001 0.000001 -0.000000 -5.051926 12.901050 15.047258 -6.011335 6.549789 26.503243 -0.000000 -0.000003 0.000002 -3.988855 7.554335 14.807502 -5.518016 6.008640 24.360995 -0.000000 0.000002 -0.000001 -1.055718 -0.376689 16.543500 -7.355178 7.187875 28.322800 -0.000003 0.000005 -0.000001 1.198856 -6.411811 12.976015 -10.607864 8.293071 43.203808 0.000002 0.000001 0.000002 -0.000000 0.000000 -0.000001 0.000002 0.000001 -0.000000 0.000002 0.000001 -0.000000 0.000002 0.000001 -0.000000 0.000002 0.000001 -0.000000 0.000002 0.000001 0.000000 0.000001 0.000001 -0.000000 0.000002 0.000001 -0.000000 0.000002 0.000001 0.000000 0.000002 0.000001 -0.000000 0.000000 -0.000001 -0.000000 0.000000 -0.000001 -0.000000 -0.000000 -0.000003 -0.000000 
